# xmcd CD database file
#
# Track frame offsets:
#	150
#	15233
#	32954
#	49176
#	67275
#	82984
#	100256
#	116518
#	139340
#	156491
#	183161
#	198914
#	217920
#	238717
#	258278
#	272538
#	290554
#	310928
#
# Disc length: 4448 seconds
#
# Revision: 2
# Processed by: cddbd v1.5.2PL0 Copyright (c) Steve Scherf et al.
# Submitted via: CDex 1.51
#
DISCID=02115e12
DTITLE=Various Artist - SF-342
DYEAR=1900
DGENRE=Blues
TTITLE0=The Vamps Ft Demi Lovato - Somebody To You
TTITLE1=Ed Sheeran - Don't
TTITLE2=Union J - Tonight (we live forever)
TTITLE3=OneRepublic - Love Runs Out
TTITLE4=Maroon 5 - Maps
TTITLE5=Sia - Chandeller
TTITLE6=The Saturdays - What Are You Waiting For
TTITLE7=Dj Cassidy Ft R Kelly - Make The World Go Around
TTITLE8=Iggy Azalea Ft Rita Ora - Black Widow
TTITLE9=Lana Del Rey - Shades Of Cool
TTITLE10=Rixton - Me And My Broken Heart
TTITLE11=5 Seconds Of Summer - Amnesia
TTITLE12=Foxes - Glorious
TTITLE13=Nico and Vinz - Am I Wrong
TTITLE14=MKTO - Classic
TTITLE15=Magic! - Rude
TTITLE16=La Roux - Uptight Downtown
TTITLE17=Dolly Parton - Try
EXTD=
EXTT0=
EXTT1=
EXTT2=
EXTT3=
EXTT4=
EXTT5=
EXTT6=
EXTT7=
EXTT8=
EXTT9=
EXTT10=
EXTT11=
EXTT12=
EXTT13=
EXTT14=
EXTT15=
EXTT16=
EXTT17=
PLAYORDER=
